<?xml version="1.0" encoding="UTF-8"?>
<svg id="Layer_1" data-name="Layer 1" xmlns="http://www.w3.org/2000/svg" viewBox="0 0 170 170">
  <defs>
    <style>
      .cls-1 {
        fill: #fff;
      }
    </style>
  </defs>
  <g id="_Radial_Repeat_" data-name="&amp;lt;Radial Repeat&amp;gt;">
    <g>
      <path class="cls-1" d="m44.21,118.42c.68-2.6,2.14-6.84,5.41-11.17,1.07-1.42,3.99-5.04,8.99-8.09,3.27-2,6.9-3.36,10.65-4.14,3.49-.73,7.76-1.49,11.22-.27.62.22,1.22.51,1.78.86,3.39,2.1,4.57,5.7,5.36,8.11.32.97,1.61,5.13.48,12.62-.57,3.8-1.96,9.77-5.78,16.49-3.57-1.53-7.12-3.07-10.69-4.6.81-1.84,1.74-4.24,2.53-7.13.68-2.48,1.56-5.73,1.67-10.04.07-2.48-.14-4.55-.34-6-1.88.07-4.22.41-6.72,1.4-8.15,3.25-11.5,10.96-12.32,13-4.08-.34-8.16-.69-12.24-1.03Z"/>
      <path class="cls-1" d="m74.05,94.14c.12,0,.24-.02.36-.03.03.04.06.07.1.11-.17-.03-.32-.05-.45-.08Z"/>
    </g>
  </g>
  <g id="_Radial_Repeat_-2" data-name="&amp;lt;Radial Repeat&amp;gt;">
    <g>
      <path class="cls-1" d="m51.58,44.21c2.6.68,6.84,2.14,11.17,5.41,1.42,1.07,5.04,3.99,8.09,8.99,2,3.27,3.36,6.9,4.14,10.65.73,3.49,1.49,7.76.27,11.22-.22.62-.51,1.22-.86,1.78-2.1,3.39-5.7,4.57-8.11,5.36-.97.32-5.13,1.61-12.62.48-3.8-.57-9.77-1.96-16.49-5.78,1.53-3.57,3.07-7.12,4.6-10.69,1.84.81,4.24,1.74,7.13,2.53,2.48.68,5.73,1.56,10.04,1.67,2.48.07,4.55-.14,6-.34-.07-1.88-.41-4.22-1.4-6.72-3.25-8.15-10.96-11.5-13-12.32.34-4.08.69-8.16,1.03-12.24Z"/>
      <path class="cls-1" d="m75.86,74.05c0,.12.02.24.03.36-.04.03-.07.06-.11.1.03-.17.05-.32.08-.45Z"/>
    </g>
  </g>
  <g id="_Radial_Repeat_-3" data-name="&amp;lt;Radial Repeat&amp;gt;">
    <g>
      <path class="cls-1" d="m125.79,51.58c-.68,2.6-2.14,6.84-5.41,11.17-1.07,1.42-3.99,5.04-8.99,8.09-3.27,2-6.9,3.36-10.65,4.14-3.49.73-7.76,1.49-11.22.27-.62-.22-1.22-.51-1.78-.86-3.39-2.1-4.57-5.7-5.36-8.11-.32-.97-1.61-5.13-.48-12.62.57-3.8,1.96-9.77,5.78-16.49,3.57,1.53,7.12,3.07,10.69,4.6-.81,1.84-1.74,4.24-2.53,7.13-.68,2.48-1.56,5.73-1.67,10.04-.07,2.48.14,4.55.34,6,1.88-.07,4.22-.41,6.72-1.4,8.15-3.25,11.5-10.96,12.32-13,4.08.34,8.16.69,12.24,1.03Z"/>
      <path class="cls-1" d="m95.95,75.86c-.12,0-.24.02-.36.03-.03-.04-.06-.07-.1-.11.17.03.32.05.45.08Z"/>
    </g>
  </g>
  <g id="_Radial_Repeat_-4" data-name="&amp;lt;Radial Repeat&amp;gt;">
    <g>
      <path class="cls-1" d="m118.42,125.79c-2.6-.68-6.84-2.14-11.17-5.41-1.42-1.07-5.04-3.99-8.09-8.99-2-3.27-3.36-6.9-4.14-10.65-.73-3.49-1.49-7.76-.27-11.22.22-.62.51-1.22.86-1.78,2.1-3.39,5.7-4.57,8.11-5.36.97-.32,5.13-1.61,12.62-.48,3.8.57,9.77,1.96,16.49,5.78-1.53,3.57-3.07,7.12-4.6,10.69-1.84-.81-4.24-1.74-7.13-2.53-2.48-.68-5.73-1.56-10.04-1.67-2.48-.07-4.55.14-6,.34.07,1.88.41,4.22,1.4,6.72,3.25,8.15,10.96,11.5,13,12.32-.34,4.08-.69,8.16-1.03,12.24Z"/>
      <path class="cls-1" d="m94.14,95.95c0-.12-.02-.24-.03-.36.04-.03.07-.06.11-.1-.03.17-.05.32-.08.45Z"/>
    </g>
  </g>
</svg>